PathFileType	4	(X/Y/Z)	C:/Users/opensim2020/Desktop/walking_exp_matlab/subject03/subject03_trc/subject03_walking16_run_cyclic.trc	
DataRate	CameraRate	NumFrames	NumMarkers	Units	OrigDataRate	OrigDataStartFrame	OrigNumFrames	
100.00	100.00	7	49	mm	100.00	232	67	
Frame#	Time	RKNE			RTOE			RWRB			LTHI			RELB			RFRM			RUPA			RASI			LTIB			RWRA			RTHI			LSHO			LTOE			RTIB			LWRA			CLAV			LASI			RSHO			RFHD			STRN			LHEE			RFIN			RBHD			LFRM			C7			LWRB			LFIN			LUPA			LBHD			LELB			RANK			RHEE			RBAK			LPSI			T10			LFHD			RPSI			LKNE			LANK			*39			*40			*41			*42			*43			*44			*45			*46			*47			*48			
		X1	Y1	Z1	X2	Y2	Z2	X3	Y3	Z3	X4	Y4	Z4	X5	Y5	Z5	X6	Y6	Z6	X7	Y7	Z7	X8	Y8	Z8	X9	Y9	Z9	X10	Y10	Z10	X11	Y11	Z11	X12	Y12	Z12	X13	Y13	Z13	X14	Y14	Z14	X15	Y15	Z15	X16	Y16	Z16	X17	Y17	Z17	X18	Y18	Z18	X19	Y19	Z19	X20	Y20	Z20	X21	Y21	Z21	X22	Y22	Z22	X23	Y23	Z23	X24	Y24	Z24	X25	Y25	Z25	X26	Y26	Z26	X27	Y27	Z27	X28	Y28	Z28	X29	Y29	Z29	X30	Y30	Z30	X31	Y31	Z31	X32	Y32	Z32	X33	Y33	Z33	X34	Y34	Z34	X35	Y35	Z35	X36	Y36	Z36	X37	Y37	Z37	X38	Y38	Z38	X39	Y39	Z39	X40	Y40	Z40	X41	Y41	Z41	X42	Y42	Z42	X43	Y43	Z43	X44	Y44	Z44	X45	Y45	Z45	X46	Y46	Z46	X47	Y47	Z47	X48	Y48	Z48	X49	Y49	Z49	

39	0.380	356.47223	-152.68254	548.87866	307.58618	-96.46555	60.70892	481.92862	-460.56097	947.46759	84.91607	-489.33420	622.67700	479.37817	-567.09985	1145.15527	482.37222	-506.57187	1034.85999	455.95300	-519.40887	1227.27917	348.41812	-336.18231	924.30609	132.97079	-694.05298	314.76102	450.48325	-429.30945	977.24402	395.90195	-273.12259	680.47260	78.05210	-325.69904	1364.87256	223.58556	-751.93707	30.43958	369.35867	-181.09116	354.55582	183.31212	-157.23544	1136.64294	233.64764	-295.46371	1318.16235	118.13721	-349.10599	901.72498	373.68350	-372.99554	1365.20166	292.29141	-339.86844	1615.20349	238.16873	-265.94046	1146.65283	220.83582	-873.71863	165.06627	493.87479	-396.65451	921.70172	277.78888	-438.97308	1531.13464	74.16101	-198.04703	1103.98022	204.11867	-419.39175	1394.54602	152.84070	-120.12112	1108.39014	233.85657	-79.24403	1119.31055	-5.09038	-300.00266	1184.90747	148.92755	-419.03317	1525.47046	-7.69042	-271.01923	1084.81860	336.13712	-219.39883	137.94081	287.28717	-272.09048	118.91475	285.17484	-495.67844	1246.01941	176.79901	-501.65488	956.09259	220.49480	-481.24570	1095.69092	161.22299	-315.34625	1610.06482	321.11194	-494.54779	966.50903	121.96780	-542.75549	451.58328	183.19283	-828.78687	159.71809																						195.58301	-421.58334	1638.05615						 
40	0.390	357.07736	-123.03493	548.19305	301.04340	-25.84650	59.92468	480.65280	-432.91351	954.79517	84.46633	-460.49088	630.11737	477.51700	-538.35638	1153.98071	480.88199	-478.35324	1042.98169	455.00122	-489.28894	1236.39612	348.26407	-300.57016	930.87848	131.03328	-674.76093	327.60214	449.87512	-400.94446	984.62689	396.11987	-239.62720	685.00647	81.18695	-293.09396	1371.75562	222.06622	-749.62256	30.71315	369.66913	-135.69579	350.95609	185.52913	-131.62527	1157.40247	235.56235	-263.56598	1324.01514	118.76574	-310.94577	906.35193	374.76266	-340.18744	1371.07129	293.50476	-307.07144	1620.50269	240.34428	-232.40059	1152.99524	217.00279	-849.55573	180.80373	493.09344	-369.24850	927.74908	279.14496	-406.67636	1537.33801	77.59392	-166.65598	1118.19873	205.40971	-386.74005	1400.22156	159.64610	-92.72094	1127.80701	240.00960	-55.85631	1148.25720	-2.46648	-263.79562	1193.09900	150.31711	-386.80435	1531.37610	-6.31708	-235.16844	1094.09338	333.63116	-152.13145	132.30553	284.85434	-203.46324	112.44906	284.98849	-462.57336	1252.63867	175.77660	-463.74057	961.54865	219.09283	-446.97620	1100.61682	162.75435	-282.64182	1615.03589	319.30777	-458.22681	972.29529	121.10728	-521.42834	461.62784	178.47528	-808.06250	169.41672																						196.99493	-388.57791	1644.09802						 
41	0.400	357.93234	-94.51618	545.09760	295.85294	41.73713	63.32961	479.47415	-403.85461	960.93622	84.28193	-430.85663	636.67560	476.04959	-508.58386	1161.32886	479.71164	-448.97110	1049.81494	454.82480	-458.32706	1244.23755	348.23975	-265.02219	936.20630	129.43394	-653.26538	339.57880	449.39655	-371.43402	990.94867	396.51114	-206.87192	687.03455	84.49354	-260.94345	1377.61963	219.68245	-741.45313	35.87913	369.61292	-91.97948	347.24625	187.48218	-107.35365	1175.41150	237.38588	-232.05873	1328.89429	119.42065	-273.07379	910.65900	375.97977	-307.05609	1375.84106	294.80829	-274.03287	1624.58350	242.39673	-198.80153	1158.60376	209.57881	-825.98560	195.80458	491.97214	-340.29849	932.77014	280.49219	-374.43750	1542.62231	80.83801	-136.34863	1130.92749	206.88982	-354.54663	1405.31860	165.63071	-66.67707	1145.71411	244.18451	-33.64059	1174.48499	-0.54480	-228.04836	1200.79602	151.73071	-354.56061	1536.33521	-5.38476	-199.79231	1102.52612	330.99387	-88.58362	129.25615	282.10925	-137.69443	107.62228	285.35251	-429.18399	1258.71252	174.56520	-425.61761	966.47076	217.94122	-412.43454	1105.05847	164.38850	-249.64523	1618.72375	317.58011	-421.33450	977.34882	120.14477	-499.35150	471.34442	172.38603	-785.63501	179.44780																						198.37744	-355.84412	1649.49902						 
42	0.410	358.85925	-66.87840	540.37909	293.65085	105.14272	70.40096	478.75067	-373.30194	965.74829	84.53611	-400.42776	642.46497	475.27356	-477.99774	1166.94763	479.13193	-418.57373	1055.20764	454.97064	-426.88089	1250.60986	348.20981	-229.57161	940.12396	128.11565	-629.02911	350.12906	449.04095	-340.51419	995.94470	396.92465	-175.03859	686.41309	87.75990	-229.29677	1382.21716	215.91776	-731.59717	43.04213	368.54736	-51.08474	343.91275	189.56512	-84.59509	1190.00073	239.27472	-200.56535	1332.76978	119.87492	-236.21999	913.87964	377.40121	-273.78836	1379.23047	296.23804	-240.97290	1627.47461	244.21796	-165.32521	1163.33337	201.44090	-801.66705	211.34865	490.95529	-309.75424	936.21362	281.88379	-342.11163	1546.68994	83.48066	-106.85055	1142.18469	208.90413	-322.47464	1409.10852	170.35658	-41.56298	1161.60327	247.34186	-12.14234	1196.35303	1.39533	-193.18449	1207.59290	153.18193	-322.22076	1540.04248	-4.51135	-164.80534	1109.80750	328.36365	-30.36966	128.06424	278.85440	-76.73908	104.42066	286.28702	-395.60651	1263.81458	172.91162	-387.58850	970.59119	217.17731	-377.96320	1108.70459	165.85280	-216.55638	1621.24780	315.94907	-385.13733	981.30884	120.09364	-474.59293	479.93048	166.29033	-762.28070	190.27002																						199.42111	-321.81744	1653.42993						 
43	0.420	359.55347	-39.07236	534.93762	294.52228	162.09795	77.96169	478.57681	-341.18860	968.94507	85.16536	-368.42123	647.32532	475.51758	-446.57306	1170.59314	479.23309	-386.88034	1058.89771	456.05396	-394.82483	1254.87061	348.19788	-194.34135	942.25409	126.52108	-599.96741	358.15384	449.09521	-308.38712	999.51392	397.30417	-144.03288	683.24933	90.83109	-198.05133	1385.54126	211.03981	-720.37360	50.80621	368.03482	-12.75948	341.50217	191.14812	-61.43139	1201.29431	241.12373	-168.89743	1335.44434	119.89960	-199.71426	916.48871	379.27298	-240.74765	1381.16113	297.71689	-207.91154	1629.37378	244.93411	-131.60681	1166.34631	194.80492	-775.12085	227.11996	489.87183	-277.36130	938.27356	283.42221	-309.68832	1549.49573	85.34710	-78.08054	1151.39404	211.14742	-290.92581	1411.55359	173.80292	-16.52509	1174.59924	250.04123	9.34703	1213.10828	2.93154	-159.36330	1213.16345	154.68271	-289.88120	1542.42810	-3.98876	-129.88315	1115.55688	326.08197	22.28252	127.86169	275.10773	-20.72330	102.88789	287.88977	-362.02344	1267.54700	171.21042	-350.17075	973.87512	216.84373	-343.57068	1111.29138	167.25456	-183.53799	1622.74915	314.70169	-349.57104	983.99719	120.62639	-444.04056	485.54733	161.07332	-737.58783	201.35956																						200.63060	-288.00867	1656.19617						 
44	0.430	360.00870	-10.37639	529.42120	296.76010	211.69873	83.50170	479.03595	-307.39102	970.35541	85.56532	-333.60104	650.15881	477.05701	-414.18976	1172.03992	480.22705	-353.57309	1060.72693	458.07410	-362.12924	1256.84253	348.30472	-159.68764	942.56805	124.88903	-568.08698	363.84070	449.71820	-274.81372	1001.35773	397.87332	-113.91345	678.01453	93.37736	-167.25015	1387.97571	204.07768	-707.33636	60.97858	367.59708	22.09031	339.54477	192.08069	-36.79594	1209.11572	242.88664	-136.78236	1337.05493	119.76401	-163.78438	918.29156	381.15982	-207.63174	1381.61951	299.19797	-174.97420	1630.53918	247.06783	-98.72833	1169.11755	193.25850	-748.49280	242.65834	488.94992	-242.96031	938.86908	285.06256	-277.25375	1551.21765	86.41405	-49.67475	1157.94397	213.73503	-259.82648	1412.54224	176.22632	9.25805	1183.44727	252.18015	32.54031	1224.32349	4.55903	-126.47814	1217.35608	156.34383	-257.45364	1543.69788	-3.84063	-95.97231	1119.44531	324.45758	69.08362	128.32875	271.63437	28.90170	102.80896	289.97473	-328.63745	1269.54895	169.77705	-313.45267	976.27399	216.98347	-309.29849	1112.76196	168.75464	-150.64888	1623.46313	313.97116	-314.51352	985.09857	121.21037	-408.51831	486.87543	157.98857	-713.07147	213.59804																						201.92688	-254.25946	1657.69092						 
45	0.440	360.21011	18.91710	523.79688	298.86038	253.35201	85.81606	480.13571	-271.84473	969.91223	85.48229	-295.59326	649.40552	480.04153	-380.52386	1171.22498	482.09924	-318.74933	1060.41370	461.02658	-328.40384	1256.18079	348.55545	-125.53575	941.24677	123.49459	-535.27869	368.02731	450.53635	-239.92397	1001.25403	399.20416	-84.44638	671.53809	95.47029	-136.41806	1389.50500	196.97267	-691.37738	72.94008	367.26837	54.23024	337.27505	192.63586	-10.05527	1212.60498	244.42783	-104.61414	1337.75769	119.74615	-128.32611	919.10107	383.19574	-174.51849	1380.75574	300.62024	-142.18954	1631.14661	247.79358	-64.28922	1169.44141	194.61147	-722.00366	257.82455	488.45032	-206.99437	937.79572	286.79520	-244.63109	1551.93909	86.92205	-21.02466	1161.26880	216.56665	-228.63106	1412.21313	178.03905	36.57430	1187.46619	254.74197	57.13715	1228.57751	5.57352	-94.48710	1219.82080	158.08054	-224.93642	1544.02039	-4.17934	-63.21167	1121.36450	322.97803	109.18783	128.32486	269.25827	71.21590	102.98965	292.43878	-295.55347	1269.53137	168.78122	-277.56879	977.52142	217.67336	-275.25867	1112.88794	170.21756	-118.02443	1623.60925	313.83878	-279.85580	984.62323	120.92044	-370.04608	484.41739	156.99861	-688.04749	226.88637																						203.23906	-221.03297	1658.22888						 
